<?xml version="1.0" standalone="no"?>
<!DOCTYPE svg PUBLIC "-//W3C//DTD SVG 20010904//EN"
 "http://www.w3.org/TR/2001/REC-SVG-20010904/DTD/svg10.dtd">
<svg version="1.0" xmlns="http://www.w3.org/2000/svg"
 width="260.000000pt" height="260.000000pt" viewBox="0 0 260.000000 260.000000"
 preserveAspectRatio="xMidYMid meet">
<metadata>
Created by potrace 1.14, written by Peter Selinger 2001-2017
</metadata>
<g transform="translate(0.000000,260.000000) scale(0.100000,-0.100000)"
fill="#000000" stroke="none">
<path d="M104 2421 c-54 -33 -56 -45 -52 -432 l3 -354 27 -76 c81 -230 253
-389 488 -450 149 -38 336 -17 475 53 88 45 194 133 237 197 l17 23 33 -38
c75 -86 176 -162 263 -199 78 -32 185 -53 274 -53 273 0 514 157 624 405 51
114 57 168 57 526 0 360 -2 372 -60 402 -60 31 -129 10 -162 -48 -9 -16 -13
-104 -14 -322 0 -165 -4 -322 -8 -349 -4 -28 -21 -78 -37 -112 -171 -362 -700
-331 -830 49 -20 58 -22 84 -23 387 -2 279 -4 329 -18 356 -28 52 -102 70
-157 38 -55 -32 -55 -33 -57 -389 -1 -223 -5 -345 -14 -375 -44 -164 -189
-299 -353 -329 -218 -40 -441 93 -508 303 -21 65 -22 87 -23 397 -1 316 -2
329 -22 356 -41 54 -104 68 -160 34z"/>
<path d="M1252 816 l3 -124 -32 29 c-64 56 -171 47 -229 -18 -41 -46 -58 -108
-58 -208 1 -142 59 -228 161 -241 62 -7 104 6 133 44 l20 25 0 -32 c0 -30 2
-31 40 -31 25 0 40 5 41 13 0 15 0 649 0 660 -1 4 -19 7 -41 7 l-40 0 2 -124z
m-68 -138 c42 -18 66 -82 66 -171 0 -88 -15 -134 -55 -165 -51 -40 -131 -19
-157 42 -8 18 -13 71 -13 127 0 85 3 99 25 132 14 20 32 38 40 41 30 8 70 6
94 -6z"/>
<path d="M178 736 c-8 -40 7 -57 67 -81 33 -13 110 -42 170 -65 61 -23 114
-45 119 -48 9 -5 -10 -13 -209 -86 -157 -59 -145 -51 -145 -96 0 -39 7 -48 25
-32 6 5 100 44 210 87 110 43 205 82 211 87 6 4 11 23 12 41 1 31 -2 34 -61
57 -34 13 -80 31 -102 41 -43 18 -159 65 -241 98 l-52 20 -4 -23z"/>
<path d="M1596 739 c-91 -44 -129 -113 -129 -234 -1 -119 34 -184 123 -231 47
-25 177 -26 241 -1 42 16 45 20 43 50 -1 17 -2 35 -3 39 0 3 -20 -3 -43 -14
-27 -13 -68 -22 -110 -24 -55 -3 -72 1 -100 19 -40 27 -68 79 -68 130 l0 37
174 0 174 0 -3 33 c-7 95 -52 174 -114 200 -47 19 -142 17 -185 -4z m155 -65
c19 -9 38 -32 49 -57 l19 -42 -64 -3 c-35 -2 -96 -2 -135 0 l-70 3 21 42 c33
67 113 92 180 57z"/>
<path d="M2025 658 c19 -51 57 -162 87 -245 l53 -153 51 0 52 0 37 103 c20 56
50 140 67 187 16 47 38 109 49 138 10 29 19 55 19 58 0 3 -19 4 -42 2 l-41 -3
-53 -155 c-30 -85 -61 -177 -70 -203 l-16 -48 -27 78 c-15 43 -47 135 -71 206
l-43 127 -42 0 -43 0 33 -92z"/>
</g>
</svg>
